<?xml version="1.0" encoding="utf-8"?>
<!-- Svg Vector Icons : http://www.onlinewebfonts.com/icon -->
<!DOCTYPE svg PUBLIC "-//W3C//DTD SVG 1.1//EN" "http://www.w3.org/Graphics/SVG/1.1/DTD/svg11.dtd">
<svg version="1.1" xmlns="http://www.w3.org/2000/svg" xmlns:xlink="http://www.w3.org/1999/xlink" x="0px" y="0px" viewBox="0 0 1000 1000" enable-background="new 0 0 1000 1000" xml:space="preserve">
<metadata> Svg Vector Icons : http://www.onlinewebfonts.com/icon </metadata>
<g><path d="M962.8,472.8H37.2c-15,0-27.2,12.2-27.2,27.2c0,15,12.2,27.2,27.2,27.2h925.6c15,0,27.2-12.2,27.2-27.2C990,484.9,977.8,472.8,962.8,472.8z M37.2,200.6h925.6c15,0,27.2-12.2,27.2-27.2s-12.2-27.2-27.2-27.2H37.2c-15,0-27.2,12.2-27.2,27.2S22.2,200.6,37.2,200.6z M962.8,799.4H37.2c-15,0-27.2,12.2-27.2,27.2c0,15.1,12.2,27.2,27.2,27.2h925.6c15,0,27.2-12.2,27.2-27.2C990,811.6,977.8,799.4,962.8,799.4z"/></g>
</svg>